<?xml version="1.0" encoding="UTF-8" standalone="no"?>
<!DOCTYPE svg PUBLIC "-//W3C//DTD SVG 1.1//EN" "http://www.w3.org/Graphics/SVG/1.1/DTD/svg11.dtd">
<svg width="100%" height="100%" viewBox="0 0 3000 360" version="1.1" xmlns="http://www.w3.org/2000/svg" xmlns:xlink="http://www.w3.org/1999/xlink" xml:space="preserve" xmlns:serif="http://www.serif.com/" style="fill-rule:evenodd;clip-rule:evenodd;stroke-linejoin:round;stroke-miterlimit:2;">
    <g transform="matrix(1,0,0,1,-205.454545,-630.181802)">
        <g transform="matrix(333.333333,0,0,333.333333,292.954545,904.015135)">
            <path d="M0.136,-0.018L0.136,-0.545L0.275,-0.545L0.275,-0.018L0.136,-0.018ZM0.063,-0L0.063,-0.119L0.347,-0.119L0.347,-0L0.063,-0ZM0.063,-0.444L0.063,-0.563L0.347,-0.563L0.347,-0.444L0.063,-0.444Z" style="fill-rule:nonzero;"/>
        </g>
        <g transform="matrix(333.333333,0,0,333.333333,431.287879,904.015135)">
            <path d="M0.035,-0L0.035,-0.414L0.156,-0.414L0.179,-0.338L0.181,-0.338C0.181,-0.338 0.183,-0.342 0.186,-0.35C0.19,-0.357 0.197,-0.366 0.206,-0.376C0.215,-0.386 0.229,-0.395 0.245,-0.403C0.263,-0.41 0.284,-0.414 0.311,-0.414C0.341,-0.414 0.365,-0.409 0.384,-0.398C0.402,-0.387 0.416,-0.373 0.425,-0.356C0.435,-0.339 0.442,-0.321 0.445,-0.301C0.448,-0.282 0.45,-0.263 0.451,-0.244C0.451,-0.226 0.451,-0.211 0.451,-0.198L0.451,-0L0.315,-0L0.315,-0.199C0.315,-0.214 0.314,-0.228 0.311,-0.242C0.309,-0.256 0.303,-0.268 0.294,-0.278C0.285,-0.287 0.269,-0.292 0.246,-0.292C0.224,-0.292 0.208,-0.287 0.199,-0.278C0.19,-0.268 0.184,-0.256 0.182,-0.242C0.18,-0.228 0.179,-0.214 0.179,-0.199L0.179,-0L0.035,-0Z" style="fill-rule:nonzero;"/>
        </g>
        <g transform="matrix(333.333333,0,0,333.333333,593.287879,904.015135)">
            <path d="M0.2,0.01C0.159,0.01 0.126,0.002 0.103,-0.015C0.079,-0.032 0.062,-0.056 0.052,-0.087C0.043,-0.118 0.038,-0.155 0.038,-0.198C0.038,-0.244 0.043,-0.283 0.053,-0.315C0.063,-0.347 0.08,-0.371 0.104,-0.389C0.127,-0.406 0.159,-0.414 0.2,-0.414C0.225,-0.414 0.246,-0.41 0.263,-0.403C0.28,-0.395 0.293,-0.386 0.302,-0.376C0.311,-0.366 0.318,-0.357 0.322,-0.35C0.326,-0.342 0.328,-0.338 0.328,-0.338L0.33,-0.338L0.33,-0.563L0.474,-0.563L0.474,-0L0.352,-0L0.33,-0.056L0.328,-0.056C0.328,-0.056 0.326,-0.053 0.322,-0.046C0.317,-0.039 0.31,-0.032 0.3,-0.023C0.29,-0.014 0.277,-0.007 0.261,-0C0.244,0.007 0.224,0.01 0.2,0.01ZM0.252,-0.105C0.276,-0.105 0.294,-0.11 0.304,-0.119C0.316,-0.128 0.323,-0.139 0.326,-0.153C0.329,-0.168 0.33,-0.183 0.33,-0.199C0.33,-0.215 0.329,-0.23 0.326,-0.244C0.323,-0.259 0.316,-0.27 0.304,-0.279C0.294,-0.288 0.276,-0.292 0.252,-0.292C0.229,-0.292 0.211,-0.288 0.2,-0.279C0.189,-0.27 0.181,-0.259 0.178,-0.244C0.175,-0.23 0.174,-0.215 0.174,-0.199C0.174,-0.183 0.175,-0.168 0.178,-0.153C0.181,-0.139 0.189,-0.128 0.2,-0.119C0.211,-0.11 0.229,-0.105 0.252,-0.105Z" style="fill-rule:nonzero;"/>
        </g>
        <g transform="matrix(333.333333,0,0,333.333333,767.621212,904.015135)">
            <path d="M0.239,0.01C0.19,0.01 0.15,0.001 0.117,-0.018C0.084,-0.036 0.06,-0.061 0.044,-0.093C0.028,-0.125 0.02,-0.161 0.02,-0.202C0.02,-0.244 0.028,-0.28 0.044,-0.312C0.06,-0.344 0.084,-0.369 0.117,-0.388C0.15,-0.406 0.191,-0.415 0.239,-0.415C0.31,-0.415 0.365,-0.396 0.402,-0.356C0.439,-0.317 0.457,-0.266 0.457,-0.202C0.457,-0.162 0.449,-0.126 0.433,-0.094C0.418,-0.062 0.394,-0.037 0.362,-0.018C0.33,0.001 0.289,0.01 0.239,0.01ZM0.239,-0.106C0.264,-0.106 0.282,-0.111 0.294,-0.121C0.306,-0.131 0.314,-0.144 0.318,-0.159C0.321,-0.175 0.323,-0.191 0.323,-0.207C0.323,-0.224 0.321,-0.24 0.318,-0.255C0.314,-0.27 0.306,-0.283 0.294,-0.293C0.282,-0.304 0.264,-0.309 0.239,-0.309C0.214,-0.309 0.196,-0.304 0.183,-0.293C0.171,-0.283 0.163,-0.27 0.16,-0.255C0.156,-0.24 0.154,-0.224 0.154,-0.207C0.154,-0.191 0.156,-0.175 0.16,-0.159C0.163,-0.144 0.171,-0.131 0.183,-0.121C0.196,-0.111 0.214,-0.106 0.239,-0.106Z" style="fill-rule:nonzero;"/>
        </g>
        <g transform="matrix(333.333333,0,0,333.333333,929.954545,904.015135)">
        </g>
        <g transform="matrix(333.333333,0,0,333.333333,996.621212,904.015135)">
            <path d="M0.29,0.01C0.235,0.01 0.186,-0.001 0.144,-0.022C0.102,-0.044 0.07,-0.076 0.048,-0.119C0.025,-0.162 0.015,-0.215 0.016,-0.278C0.018,-0.342 0.032,-0.396 0.058,-0.44C0.083,-0.484 0.118,-0.517 0.162,-0.539C0.206,-0.562 0.256,-0.573 0.311,-0.573C0.394,-0.573 0.456,-0.556 0.497,-0.523C0.539,-0.49 0.567,-0.441 0.582,-0.377L0.447,-0.356C0.442,-0.379 0.431,-0.397 0.416,-0.41C0.401,-0.422 0.385,-0.43 0.365,-0.435C0.347,-0.44 0.328,-0.442 0.311,-0.442C0.255,-0.442 0.215,-0.427 0.19,-0.399C0.165,-0.369 0.153,-0.333 0.154,-0.289C0.154,-0.235 0.169,-0.194 0.2,-0.167C0.23,-0.14 0.273,-0.126 0.33,-0.126C0.347,-0.126 0.364,-0.128 0.382,-0.132C0.4,-0.135 0.417,-0.142 0.432,-0.151C0.447,-0.16 0.459,-0.174 0.467,-0.192L0.376,-0.192L0.376,-0.292L0.593,-0.292L0.593,-0L0.5,-0L0.47,-0.072L0.468,-0.072C0.462,-0.061 0.454,-0.05 0.443,-0.04C0.431,-0.03 0.419,-0.021 0.404,-0.014C0.389,-0.007 0.371,-0.001 0.352,0.004C0.333,0.008 0.313,0.01 0.29,0.01Z" style="fill-rule:nonzero;"/>
        </g>
        <g transform="matrix(333.333333,0,0,333.333333,1208.621212,904.015135)">
            <path d="M0.235,0.01C0.185,0.01 0.145,0 0.114,-0.02C0.083,-0.04 0.061,-0.066 0.046,-0.098C0.032,-0.129 0.024,-0.162 0.023,-0.197C0.022,-0.242 0.03,-0.282 0.047,-0.315C0.064,-0.347 0.089,-0.373 0.12,-0.391C0.152,-0.408 0.189,-0.417 0.23,-0.417C0.269,-0.417 0.304,-0.409 0.336,-0.393C0.366,-0.376 0.391,-0.353 0.409,-0.323C0.426,-0.293 0.435,-0.257 0.435,-0.215L0.435,-0.189L0.155,-0.189C0.155,-0.16 0.162,-0.138 0.176,-0.125C0.191,-0.112 0.209,-0.105 0.232,-0.105C0.251,-0.105 0.267,-0.11 0.279,-0.119C0.29,-0.128 0.297,-0.139 0.299,-0.153L0.434,-0.153C0.432,-0.124 0.423,-0.096 0.408,-0.072C0.393,-0.047 0.371,-0.027 0.342,-0.012C0.313,0.003 0.278,0.01 0.235,0.01ZM0.157,-0.245L0.295,-0.245C0.295,-0.245 0.295,-0.248 0.294,-0.254C0.294,-0.26 0.292,-0.267 0.288,-0.275C0.284,-0.283 0.277,-0.29 0.268,-0.296C0.259,-0.302 0.245,-0.305 0.227,-0.305C0.209,-0.305 0.195,-0.302 0.185,-0.296C0.175,-0.29 0.168,-0.283 0.165,-0.275C0.161,-0.267 0.159,-0.26 0.158,-0.254C0.157,-0.248 0.157,-0.245 0.157,-0.245Z" style="fill-rule:nonzero;"/>
        </g>
        <g transform="matrix(333.333333,0,0,333.333333,1366.621212,904.015135)">
            <path d="M0.035,-0L0.035,-0.414L0.167,-0.414L0.176,-0.293L0.175,-0.203L0.175,-0L0.035,-0ZM0.175,-0.165L0.172,-0.258C0.171,-0.27 0.173,-0.285 0.177,-0.302C0.182,-0.32 0.19,-0.337 0.202,-0.354C0.213,-0.371 0.23,-0.386 0.251,-0.397C0.272,-0.408 0.299,-0.414 0.332,-0.414L0.341,-0.414L0.341,-0.259L0.331,-0.259C0.306,-0.259 0.284,-0.258 0.265,-0.256C0.245,-0.254 0.229,-0.25 0.215,-0.244C0.203,-0.238 0.193,-0.229 0.185,-0.216C0.179,-0.203 0.175,-0.186 0.175,-0.165Z" style="fill-rule:nonzero;"/>
        </g>
        <g transform="matrix(333.333333,0,0,333.333333,1491.287879,904.015135)">
            <path d="M0.035,-0L0.035,-0.414L0.171,-0.414L0.171,-0.338L0.173,-0.338C0.173,-0.338 0.175,-0.342 0.179,-0.35C0.183,-0.357 0.19,-0.366 0.199,-0.376C0.208,-0.386 0.219,-0.395 0.234,-0.403C0.249,-0.41 0.267,-0.414 0.288,-0.414C0.307,-0.414 0.324,-0.411 0.337,-0.404C0.35,-0.397 0.361,-0.387 0.37,-0.376C0.379,-0.365 0.385,-0.352 0.39,-0.338L0.392,-0.338C0.392,-0.339 0.394,-0.343 0.399,-0.351C0.404,-0.358 0.411,-0.367 0.42,-0.377C0.43,-0.387 0.443,-0.396 0.459,-0.403C0.474,-0.41 0.493,-0.414 0.515,-0.414C0.54,-0.414 0.561,-0.409 0.579,-0.398C0.596,-0.387 0.609,-0.372 0.62,-0.354C0.631,-0.337 0.639,-0.318 0.644,-0.298C0.649,-0.279 0.653,-0.26 0.654,-0.242C0.656,-0.224 0.657,-0.209 0.657,-0.198L0.657,-0L0.521,-0L0.521,-0.199C0.521,-0.209 0.521,-0.219 0.52,-0.23C0.519,-0.241 0.517,-0.251 0.514,-0.261C0.511,-0.27 0.505,-0.278 0.498,-0.284C0.491,-0.289 0.48,-0.292 0.467,-0.292C0.45,-0.292 0.437,-0.287 0.429,-0.277C0.422,-0.267 0.417,-0.255 0.416,-0.24C0.415,-0.226 0.414,-0.212 0.414,-0.199L0.414,-0L0.278,-0L0.278,-0.199C0.278,-0.209 0.278,-0.219 0.277,-0.23C0.276,-0.241 0.274,-0.251 0.271,-0.261C0.268,-0.27 0.262,-0.278 0.255,-0.284C0.248,-0.289 0.237,-0.292 0.224,-0.292C0.207,-0.292 0.194,-0.287 0.186,-0.277C0.179,-0.267 0.174,-0.255 0.173,-0.24C0.172,-0.226 0.171,-0.212 0.171,-0.199L0.171,-0L0.035,-0Z" style="fill-rule:nonzero;"/>
        </g>
        <g transform="matrix(333.333333,0,0,333.333333,1721.954545,904.015135)">
            <path d="M0.174,0.01C0.137,0.01 0.107,0.002 0.085,-0.015C0.063,-0.033 0.047,-0.057 0.038,-0.088C0.029,-0.119 0.024,-0.157 0.024,-0.2C0.024,-0.243 0.029,-0.281 0.038,-0.313C0.047,-0.345 0.063,-0.37 0.085,-0.388C0.107,-0.405 0.137,-0.414 0.174,-0.414C0.201,-0.414 0.223,-0.41 0.24,-0.403C0.257,-0.395 0.27,-0.386 0.279,-0.376C0.288,-0.366 0.295,-0.357 0.298,-0.35C0.302,-0.342 0.304,-0.338 0.304,-0.338L0.306,-0.338L0.306,-0.414L0.45,-0.414L0.45,-0L0.328,-0L0.306,-0.056L0.304,-0.056C0.305,-0.056 0.303,-0.053 0.299,-0.046C0.295,-0.039 0.288,-0.032 0.279,-0.023C0.269,-0.014 0.256,-0.007 0.239,-0C0.222,0.007 0.2,0.01 0.174,0.01ZM0.233,-0.105C0.256,-0.105 0.272,-0.11 0.283,-0.119C0.293,-0.128 0.299,-0.139 0.302,-0.154C0.305,-0.169 0.306,-0.184 0.306,-0.199C0.306,-0.215 0.305,-0.23 0.302,-0.244C0.299,-0.259 0.293,-0.27 0.283,-0.279C0.272,-0.288 0.256,-0.292 0.233,-0.292C0.21,-0.292 0.194,-0.288 0.183,-0.279C0.173,-0.27 0.167,-0.258 0.164,-0.244C0.161,-0.23 0.16,-0.215 0.16,-0.199C0.16,-0.183 0.161,-0.168 0.164,-0.153C0.167,-0.139 0.173,-0.128 0.183,-0.119C0.194,-0.11 0.21,-0.105 0.233,-0.105Z" style="fill-rule:nonzero;"/>
        </g>
        <g transform="matrix(333.333333,0,0,333.333333,1881.954545,904.015135)">
            <path d="M0.035,-0L0.035,-0.414L0.156,-0.414L0.179,-0.338L0.181,-0.338C0.181,-0.338 0.183,-0.342 0.186,-0.35C0.19,-0.357 0.197,-0.366 0.206,-0.376C0.215,-0.386 0.229,-0.395 0.245,-0.403C0.263,-0.41 0.284,-0.414 0.311,-0.414C0.341,-0.414 0.365,-0.409 0.384,-0.398C0.402,-0.387 0.416,-0.373 0.425,-0.356C0.435,-0.339 0.442,-0.321 0.445,-0.301C0.448,-0.282 0.45,-0.263 0.451,-0.244C0.451,-0.226 0.451,-0.211 0.451,-0.198L0.451,-0L0.315,-0L0.315,-0.199C0.315,-0.214 0.314,-0.228 0.311,-0.242C0.309,-0.256 0.303,-0.268 0.294,-0.278C0.285,-0.287 0.269,-0.292 0.246,-0.292C0.224,-0.292 0.208,-0.287 0.199,-0.278C0.19,-0.268 0.184,-0.256 0.182,-0.242C0.18,-0.228 0.179,-0.214 0.179,-0.199L0.179,-0L0.035,-0Z" style="fill-rule:nonzero;"/>
        </g>
        <g transform="matrix(333.333333,0,0,333.333333,2043.954545,904.015135)">
        </g>
        <g transform="matrix(333.333333,0,0,333.333333,2110.621212,904.015135)">
            <path d="M0.282,0.01C0.25,0.01 0.219,0.006 0.188,-0.001C0.157,-0.008 0.13,-0.02 0.105,-0.036C0.08,-0.053 0.06,-0.074 0.045,-0.1C0.03,-0.126 0.023,-0.157 0.023,-0.194L0.163,-0.194C0.163,-0.191 0.164,-0.186 0.166,-0.18C0.167,-0.174 0.171,-0.167 0.176,-0.16C0.181,-0.153 0.189,-0.146 0.198,-0.139C0.207,-0.132 0.22,-0.127 0.236,-0.122C0.251,-0.118 0.27,-0.116 0.293,-0.116C0.302,-0.116 0.312,-0.117 0.323,-0.118C0.333,-0.119 0.342,-0.121 0.351,-0.123C0.36,-0.127 0.367,-0.131 0.372,-0.137C0.377,-0.143 0.38,-0.151 0.38,-0.161C0.38,-0.175 0.373,-0.186 0.36,-0.194C0.347,-0.202 0.331,-0.209 0.309,-0.213C0.289,-0.218 0.266,-0.224 0.24,-0.229C0.216,-0.234 0.191,-0.241 0.166,-0.249C0.141,-0.257 0.119,-0.268 0.099,-0.282C0.078,-0.295 0.062,-0.313 0.052,-0.335C0.041,-0.356 0.036,-0.383 0.038,-0.416C0.041,-0.449 0.052,-0.477 0.072,-0.5C0.092,-0.523 0.12,-0.541 0.157,-0.554C0.194,-0.567 0.238,-0.573 0.289,-0.573C0.33,-0.573 0.369,-0.566 0.406,-0.551C0.442,-0.536 0.472,-0.514 0.494,-0.484C0.517,-0.454 0.529,-0.416 0.529,-0.37L0.394,-0.37C0.394,-0.385 0.39,-0.398 0.382,-0.408C0.374,-0.417 0.364,-0.424 0.351,-0.429C0.338,-0.435 0.325,-0.438 0.311,-0.44C0.297,-0.441 0.284,-0.442 0.273,-0.442C0.248,-0.442 0.228,-0.439 0.211,-0.433C0.195,-0.427 0.187,-0.415 0.187,-0.398C0.187,-0.383 0.194,-0.371 0.207,-0.362C0.22,-0.354 0.238,-0.347 0.259,-0.343C0.28,-0.338 0.304,-0.333 0.33,-0.328C0.355,-0.323 0.381,-0.316 0.406,-0.309C0.431,-0.302 0.454,-0.292 0.475,-0.279C0.495,-0.266 0.511,-0.248 0.522,-0.227C0.534,-0.206 0.539,-0.178 0.536,-0.145C0.534,-0.112 0.522,-0.085 0.501,-0.061C0.479,-0.038 0.45,-0.021 0.413,-0.009C0.376,0.004 0.332,0.01 0.282,0.01Z" style="fill-rule:nonzero;"/>
        </g>
        <g transform="matrix(333.333333,0,0,333.333333,2305.287879,904.015135)">
            <path d="M0.245,0.01C0.206,0.01 0.171,0.002 0.138,-0.013C0.104,-0.028 0.078,-0.052 0.058,-0.083C0.038,-0.114 0.028,-0.153 0.028,-0.2C0.029,-0.246 0.04,-0.285 0.059,-0.317C0.078,-0.349 0.104,-0.373 0.137,-0.391C0.17,-0.408 0.206,-0.416 0.246,-0.416C0.293,-0.416 0.331,-0.407 0.362,-0.389C0.394,-0.371 0.417,-0.349 0.432,-0.322C0.448,-0.295 0.456,-0.267 0.456,-0.24L0.329,-0.24C0.326,-0.259 0.318,-0.274 0.305,-0.284C0.292,-0.293 0.274,-0.298 0.251,-0.298C0.231,-0.298 0.215,-0.294 0.202,-0.287C0.189,-0.28 0.18,-0.27 0.174,-0.257C0.167,-0.244 0.164,-0.229 0.164,-0.212C0.164,-0.181 0.171,-0.156 0.185,-0.137C0.199,-0.118 0.222,-0.109 0.253,-0.109C0.271,-0.109 0.287,-0.114 0.302,-0.124C0.317,-0.134 0.326,-0.15 0.329,-0.173L0.456,-0.173C0.456,-0.144 0.448,-0.115 0.432,-0.087C0.417,-0.059 0.393,-0.036 0.362,-0.018C0.331,0.001 0.292,0.01 0.245,0.01Z" style="fill-rule:nonzero;"/>
        </g>
        <g transform="matrix(333.333333,0,0,333.333333,2467.287879,904.015135)">
            <path d="M0.045,-0L0.045,-0.563L0.189,-0.563L0.189,-0.338L0.191,-0.338C0.191,-0.338 0.193,-0.342 0.196,-0.35C0.199,-0.357 0.206,-0.366 0.214,-0.376C0.224,-0.386 0.236,-0.395 0.252,-0.403C0.268,-0.41 0.289,-0.414 0.314,-0.414C0.343,-0.414 0.367,-0.409 0.386,-0.398C0.405,-0.387 0.419,-0.372 0.429,-0.354C0.44,-0.337 0.447,-0.318 0.452,-0.298C0.456,-0.278 0.459,-0.259 0.46,-0.241C0.46,-0.224 0.461,-0.209 0.461,-0.198L0.461,-0L0.325,-0L0.325,-0.199C0.325,-0.214 0.324,-0.228 0.322,-0.242C0.319,-0.256 0.313,-0.268 0.304,-0.278C0.295,-0.287 0.279,-0.292 0.256,-0.292C0.234,-0.292 0.218,-0.287 0.209,-0.278C0.2,-0.268 0.194,-0.256 0.192,-0.242C0.19,-0.228 0.189,-0.214 0.189,-0.199L0.189,-0L0.045,-0Z" style="fill-rule:nonzero;"/>
        </g>
        <g transform="matrix(333.333333,0,0,333.333333,2635.954545,904.015135)">
            <path d="M0.239,0.01C0.19,0.01 0.15,0.001 0.117,-0.018C0.084,-0.036 0.06,-0.061 0.044,-0.093C0.028,-0.125 0.02,-0.161 0.02,-0.202C0.02,-0.244 0.028,-0.28 0.044,-0.312C0.06,-0.344 0.084,-0.369 0.117,-0.388C0.15,-0.406 0.191,-0.415 0.239,-0.415C0.31,-0.415 0.365,-0.396 0.402,-0.356C0.439,-0.317 0.457,-0.266 0.457,-0.202C0.457,-0.162 0.449,-0.126 0.433,-0.094C0.418,-0.062 0.394,-0.037 0.362,-0.018C0.33,0.001 0.289,0.01 0.239,0.01ZM0.239,-0.106C0.264,-0.106 0.282,-0.111 0.294,-0.121C0.306,-0.131 0.314,-0.144 0.318,-0.159C0.321,-0.175 0.323,-0.191 0.323,-0.207C0.323,-0.224 0.321,-0.24 0.318,-0.255C0.314,-0.27 0.306,-0.283 0.294,-0.293C0.282,-0.304 0.264,-0.309 0.239,-0.309C0.214,-0.309 0.196,-0.304 0.183,-0.293C0.171,-0.283 0.163,-0.27 0.16,-0.255C0.156,-0.24 0.154,-0.224 0.154,-0.207C0.154,-0.191 0.156,-0.175 0.16,-0.159C0.163,-0.144 0.171,-0.131 0.183,-0.121C0.196,-0.111 0.214,-0.106 0.239,-0.106Z" style="fill-rule:nonzero;"/>
        </g>
        <g transform="matrix(333.333333,0,0,333.333333,2798.287879,904.015135)">
            <path d="M0.239,0.01C0.19,0.01 0.15,0.001 0.117,-0.018C0.084,-0.036 0.06,-0.061 0.044,-0.093C0.028,-0.125 0.02,-0.161 0.02,-0.202C0.02,-0.244 0.028,-0.28 0.044,-0.312C0.06,-0.344 0.084,-0.369 0.117,-0.388C0.15,-0.406 0.191,-0.415 0.239,-0.415C0.31,-0.415 0.365,-0.396 0.402,-0.356C0.439,-0.317 0.457,-0.266 0.457,-0.202C0.457,-0.162 0.449,-0.126 0.433,-0.094C0.418,-0.062 0.394,-0.037 0.362,-0.018C0.33,0.001 0.289,0.01 0.239,0.01ZM0.239,-0.106C0.264,-0.106 0.282,-0.111 0.294,-0.121C0.306,-0.131 0.314,-0.144 0.318,-0.159C0.321,-0.175 0.323,-0.191 0.323,-0.207C0.323,-0.224 0.321,-0.24 0.318,-0.255C0.314,-0.27 0.306,-0.283 0.294,-0.293C0.282,-0.304 0.264,-0.309 0.239,-0.309C0.214,-0.309 0.196,-0.304 0.183,-0.293C0.171,-0.283 0.163,-0.27 0.16,-0.255C0.156,-0.24 0.154,-0.224 0.154,-0.207C0.154,-0.191 0.156,-0.175 0.16,-0.159C0.163,-0.144 0.171,-0.131 0.183,-0.121C0.196,-0.111 0.214,-0.106 0.239,-0.106Z" style="fill-rule:nonzero;"/>
        </g>
        <g transform="matrix(333.333333,0,0,333.333333,2960.621212,904.015135)">
            <rect x="0.045" y="-0.563" width="0.136" height="0.563" style="fill-rule:nonzero;"/>
        </g>
        <g transform="matrix(333.333333,0,0,333.333333,3035.954545,904.015135)">
            <path d="M0.114,-0C0.083,-0 0.062,-0.008 0.051,-0.023C0.04,-0.038 0.035,-0.057 0.035,-0.078C0.035,-0.099 0.041,-0.116 0.052,-0.131C0.062,-0.146 0.083,-0.153 0.114,-0.153C0.144,-0.153 0.164,-0.146 0.175,-0.131C0.186,-0.116 0.191,-0.099 0.191,-0.078C0.191,-0.056 0.186,-0.037 0.175,-0.022C0.164,-0.007 0.144,-0 0.114,-0Z" style="fill:rgb(255,0,0);fill-rule:nonzero;"/>
        </g>
        <g transform="matrix(333.333333,0,0,333.333333,3117.954545,904.015135)">
        </g>
    </g>
</svg>
